<?xml version="1.0" encoding="UTF-8"?>
<svg xmlns="http://www.w3.org/2000/svg" xmlns:xlink="http://www.w3.org/1999/xlink" width="128px" height="128px" viewBox="0 0 128 128" version="1.1">
<g id="surface1">
<path style=" stroke:none;fill-rule:nonzero;fill:rgb(92.941177%,33.333334%,39.215687%);fill-opacity:1;" d="M 100.058594 68.453125 L 51.640625 116.867188 C 49.09375 119.414062 49.09375 123.542969 51.640625 126.089844 C 52.910156 127.359375 54.582031 128 56.25 128 C 57.917969 128 59.585938 127.363281 60.859375 126.085938 L 109.28125 77.671875 Z M 100.058594 68.453125 "/>
<path style=" stroke:none;fill-rule:nonzero;fill:rgb(58.823532%,32.549021%,32.549021%);fill-opacity:1;" d="M 125.566406 52.050781 C 118.792969 52.050781 98.320312 53.152344 98.320312 67.035156 C 98.320312 73.808594 103.808594 79.296875 110.578125 79.296875 C 117.351562 79.296875 122.839844 73.808594 122.839844 67.035156 C 122.839844 60.265625 132.335938 52.050781 125.566406 52.050781 Z M 125.566406 52.050781 "/>
<path style=" stroke:none;fill-rule:nonzero;fill:rgb(100%,82.352942%,65.098041%);fill-opacity:1;" d="M 87.65625 11.566406 C 84.046875 7.90625 79.617188 5.070312 74.480469 3.132812 C 68.96875 1.054688 62.601562 0 55.550781 0 C 53.972656 0 52.335938 0.0507812 50.6875 0.15625 C 42.65625 0.667969 35.214844 2.453125 28.574219 5.464844 C 22.277344 8.324219 16.8125 12.222656 12.335938 17.054688 C 3.648438 26.429688 -0.699219 38.605469 0.09375 51.347656 C 0.984375 65.765625 5.042969 77.003906 12.152344 84.75 C 15.613281 88.523438 19.769531 91.40625 24.511719 93.320312 C 29.144531 95.1875 34.347656 96.136719 39.972656 96.136719 C 55.191406 96.136719 59.644531 86.324219 62.902344 79.160156 C 64.558594 75.511719 65.988281 72.359375 68.289062 71.183594 C 70.003906 70.304688 72.585938 69.957031 75.3125 69.59375 C 80.234375 68.933594 85.816406 68.183594 90.414062 64.183594 C 95.613281 59.65625 98.222656 51.96875 98.382812 40.671875 C 98.550781 29.089844 94.738281 18.753906 87.65625 11.566406 Z M 74.667969 56 C 70.25 56 66.664062 52.417969 66.664062 48 C 66.664062 43.582031 70.25 40 74.667969 40 C 79.085938 40 82.667969 43.582031 82.667969 48 C 82.667969 52.417969 79.085938 56 74.667969 56 Z M 74.667969 56 "/>
<path style=" stroke:none;fill-rule:nonzero;fill:rgb(95.686275%,74.509805%,55.686277%);fill-opacity:1;" d="M 74.667969 58.664062 C 68.785156 58.664062 63.996094 53.878906 63.996094 48 C 63.996094 42.117188 68.785156 37.332031 74.667969 37.332031 C 80.550781 37.332031 85.335938 42.117188 85.335938 48 C 85.335938 53.878906 80.550781 58.664062 74.667969 58.664062 Z M 74.667969 42.664062 C 71.726562 42.664062 69.335938 45.058594 69.335938 48 C 69.335938 50.9375 71.726562 53.332031 74.667969 53.332031 C 77.609375 53.332031 80 50.9375 80 48 C 80 45.058594 77.609375 42.664062 74.667969 42.664062 Z M 74.667969 42.664062 "/>
<path style=" stroke:none;fill-rule:nonzero;fill:rgb(62.7451%,83.137256%,40.784314%);fill-opacity:1;" d="M 58.664062 18.664062 C 58.664062 21.609375 56.277344 24 53.332031 24 C 50.386719 24 47.996094 21.609375 47.996094 18.664062 C 47.996094 15.71875 50.386719 13.332031 53.332031 13.332031 C 56.277344 13.332031 58.664062 15.71875 58.664062 18.664062 Z M 58.664062 18.664062 "/>
<path style=" stroke:none;fill-rule:nonzero;fill:rgb(54.901963%,75.686276%,32.549021%);fill-opacity:1;" d="M 53.332031 10.664062 C 48.917969 10.664062 45.332031 14.253906 45.332031 18.664062 C 45.332031 23.078125 48.917969 26.664062 53.332031 26.664062 C 57.742188 26.664062 61.332031 23.078125 61.332031 18.664062 C 61.332031 14.253906 57.742188 10.664062 53.332031 10.664062 Z M 53.332031 21.332031 C 51.859375 21.332031 50.664062 20.136719 50.664062 18.664062 C 50.664062 17.195312 51.859375 16 53.332031 16 C 54.800781 16 55.996094 17.195312 55.996094 18.664062 C 55.996094 20.136719 54.800781 21.332031 53.332031 21.332031 Z M 53.332031 21.332031 "/>
<path style=" stroke:none;fill-rule:nonzero;fill:rgb(67.450982%,57.254905%,92.156863%);fill-opacity:1;" d="M 37.332031 26.664062 C 37.332031 29.609375 34.941406 32 31.996094 32 C 29.050781 32 26.664062 29.609375 26.664062 26.664062 C 26.664062 23.71875 29.050781 21.332031 31.996094 21.332031 C 34.941406 21.332031 37.332031 23.71875 37.332031 26.664062 Z M 37.332031 26.664062 "/>
<path style=" stroke:none;fill-rule:nonzero;fill:rgb(58.823532%,47.843137%,86.274511%);fill-opacity:1;" d="M 31.996094 18.664062 C 27.585938 18.664062 23.996094 22.253906 23.996094 26.664062 C 23.996094 31.078125 27.585938 34.664062 31.996094 34.664062 C 36.410156 34.664062 39.996094 31.078125 39.996094 26.664062 C 39.996094 22.253906 36.410156 18.664062 31.996094 18.664062 Z M 31.996094 29.332031 C 30.527344 29.332031 29.332031 28.136719 29.332031 26.664062 C 29.332031 25.195312 30.527344 24 31.996094 24 C 33.46875 24 34.664062 25.195312 34.664062 26.664062 C 34.664062 28.136719 33.46875 29.332031 31.996094 29.332031 Z M 31.996094 29.332031 "/>
<path style=" stroke:none;fill-rule:nonzero;fill:rgb(36.470589%,61.176473%,92.54902%);fill-opacity:1;" d="M 26.664062 45.332031 C 26.664062 48.277344 24.277344 50.664062 21.335938 50.664062 C 18.390625 50.664062 16 48.277344 16 45.332031 C 16 42.386719 18.386719 40 21.335938 40 C 24.277344 40 26.664062 42.386719 26.664062 45.332031 Z M 26.664062 45.332031 "/>
<path style=" stroke:none;fill-rule:nonzero;fill:rgb(29.019609%,53.725493%,86.274511%);fill-opacity:1;" d="M 21.335938 37.332031 C 16.921875 37.332031 13.335938 40.921875 13.335938 45.332031 C 13.335938 49.742188 16.917969 53.332031 21.335938 53.332031 C 25.746094 53.332031 29.332031 49.742188 29.332031 45.332031 C 29.332031 40.921875 25.746094 37.332031 21.335938 37.332031 Z M 21.335938 48 C 19.863281 48 18.667969 46.800781 18.667969 45.332031 C 18.667969 43.863281 19.863281 42.664062 21.335938 42.664062 C 22.804688 42.664062 23.996094 43.863281 23.996094 45.332031 C 23.996094 46.800781 22.800781 48 21.335938 48 Z M 21.335938 48 "/>
<path style=" stroke:none;fill-rule:nonzero;fill:rgb(92.941177%,33.333334%,39.215687%);fill-opacity:1;" d="M 29.332031 66.664062 C 29.332031 69.609375 26.945312 72 23.996094 72 C 21.054688 72 18.667969 69.609375 18.667969 66.664062 C 18.667969 63.71875 21.054688 61.332031 23.996094 61.332031 C 26.941406 61.332031 29.332031 63.71875 29.332031 66.664062 Z M 29.332031 66.664062 "/>
<path style=" stroke:none;fill-rule:nonzero;fill:rgb(85.490197%,26.666668%,32.549021%);fill-opacity:1;" d="M 23.996094 58.664062 C 19.585938 58.664062 16 62.253906 16 66.664062 C 16 71.074219 19.585938 74.664062 23.996094 74.664062 C 28.410156 74.664062 31.996094 71.074219 31.996094 66.664062 C 31.996094 62.253906 28.410156 58.664062 23.996094 58.664062 Z M 23.996094 69.332031 C 22.527344 69.332031 21.335938 68.136719 21.335938 66.664062 C 21.335938 65.195312 22.53125 64 23.996094 64 C 25.46875 64 26.664062 65.195312 26.664062 66.664062 C 26.664062 68.136719 25.46875 69.332031 23.996094 69.332031 Z M 23.996094 69.332031 "/>
</g>
</svg>
